<svg xmlns="http://www.w3.org/2000/svg" viewBox="0 0 567.579 567.579">
  <path fill="#aba5cd" d="m70.958 78.361-.243 19.233-6.412 21.533 1.211 32.539-4.96 22.017 6.532 33.024 20.444 10.765 17.056-15 3.024-53.466 2.299-61.936zm12.095 36.41 13.55 4.72-2.179 10.16-13.548-2.66zm9.498 51-1.369 29.254-6.842 4.106-5.646-2.397.342-30.793z" paint-order="markers stroke fill"/>
  <path fill="#cdc9a5" d="m335.305 320.592-67.574 20.016-62.784 42.768-13.686-17.278 62.613-45.677 75.101-18.305z" paint-order="markers stroke fill"/>
  <path fill="#e7be31" d="M241.11 382.064c-.494-.312-2.328.161-4.076 1.053-1.747.891-4.062 1.62-5.143 1.62-1.082 0-5.55.729-9.928 1.619-12.515 2.544-15.638 2.668-18.114.72-1.167-.917-3.214-3.808-4.55-6.424-1.382-2.708-4.937-7.227-8.254-10.494-5.299-5.218-7.846-7.092-18.308-13.464-1.852-1.129-5.168-2.314-7.368-2.635-3.812-.555-4-.489-4 1.417 0 1.108-1.092 3.045-2.45 4.346-2.015 1.93-2.91 2.245-5.05 1.775-2.972-.653-5.132-3.255-5.132-6.183 0-1.137-1.09-3.019-2.526-4.36-1.851-1.73-2.526-3.128-2.526-5.23 0-4.426 1.678-6.097 5.873-5.85 2.231.132 4.874-.436 7.144-1.535 6.111-2.958 9.977-.168 9.527 6.877-.192 2.993.043 3.624 1.456 3.91.926.187 2.66 1.032 3.85 1.877 3.212 2.278 9.854 2.93 13.657 1.342 3.9-1.63 3.991-3.533.245-5.098-3.275-1.369-4.7-3.507-4.7-7.055 0-2.801 2.254-5.239 4.844-5.239 2.124 0 6.651 3.64 7.379 5.932.726 2.287 3.332 2.058 5.32-.468 3.007-3.824.597-12.065-5.373-18.372l-2.255-2.382-2.267 2.172c-5.164 4.947-10.526 1.613-10.669-6.635-.04-2.335-.594-5.47-1.23-6.965-1.05-2.467-.996-2.936.58-5.053 2.316-3.115 4.63-3.304 9.2-.75 2.092 1.169 4.33 1.924 4.974 1.677 1.527-.586 6.914 1.985 7.532 3.594.45 1.172-.684 3.828-3.094 7.25-1.64 2.33.046 4.046 7.87 8.016 7.296 3.702 14.722 5.12 14.442 2.991-14.752-112.312 64.244-34.125 64.244-34.125 1.69 5.027 6.413-4.074 7.254-10.65.917-7.17.288-8.547-3.898-8.547-3.457 0-7.168-2.846-7.168-5.496 0-2.375 1.657-6.294 2.661-6.294 1.58 0 4.076-3.52 4.076-5.748 0-1.458.826-3.156 2.135-4.386 2.131-2.002 2.141-2.003 5.045-.44 1.83.987 3.29 2.62 3.936 4.408.598 1.656 2.182 3.522 3.797 4.475 2.372 1.399 2.77 2.102 2.77 4.884 0 3.204-2.578 6.912-4.806 6.912-2.47 0-2.017 7.317.807 13.053 3.357 6.817 7.79 9.57 11.567 7.183 1.077-.681 1.093-1.178.114-3.566-2.163-5.277-2.125-7.145.192-9.462 2.629-2.628 4.654-2.72 7.669-.35 1.933 1.521 2.232 2.286 1.893 4.843-.22 1.67-.679 3.889-1.017 4.931-.528 1.629-.315 1.895 1.524 1.895 1.177 0 3.246-.932 4.6-2.07 2.646-2.228 6.755-10.507 7.504-15.122.405-2.499.174-2.972-1.951-3.98-2.647-1.256-5.805-6.766-5.032-8.78.268-.699 2.387-2.15 4.71-3.227 2.321-1.075 5.008-2.956 5.97-4.178 1.26-1.603 2.525-2.222 4.537-2.222 3.263 0 5.04 2.162 6.268 7.626.436 1.938 1.201 3.934 1.7 4.433 1.68 1.68 1.043 6.41-1.157 8.61-2.247 2.247-3.88 2.55-6.422 1.19-1.313-.703-1.743-.577-2.15.63-.278.831-1.395 3.813-2.481 6.627-1.086 2.815-2.166 7.362-2.4 10.106-.233 2.743-.81 6.996-1.28 9.45-1.166 6.078.287 16.258 2.975 20.845 1.12 1.91 2.035 4.334 2.035 5.387 0 2.2-8.108 10.577-12.442 12.854-4.109 2.16-4.163 3.513-.339 8.463zm-34.716-7.588c2.06-1.938 6.2-5.254 9.198-7.368 13.709-9.665 17.236-12.092 21.526-14.812 7.852-4.979 30.944-16.412 39.048-19.334a548.492 548.492 0 0 0 14.975-5.693c9.812-3.935 31.196-9.058 37.812-9.058 1.795 0 3.5-.38 3.786-.845.288-.465-.542-2.833-1.845-5.263-2.122-3.96-2.686-4.445-5.449-4.675-3.88-.323-6.602 2.258-6.602 6.26 0 3.904-1.403 4.254-3.41.852-4.888-8.283-13.815-7.016-15.061 2.138-.583 4.282-2.064 4.977-3.733 1.75-2.487-4.81-8.942-5.87-12.586-2.065-1.8 1.877-2.263 3.172-2.263 6.315 0 4.435-1.211 5.12-3.867 2.184-2.598-2.87-6.153-4.328-9.172-3.761-4.115.772-5.75 3.141-6.17 8.945-.2 2.769-.69 5.236-1.09 5.483-.4.247-2.072-.896-3.716-2.54-3.4-3.4-6.637-3.88-10.556-1.565-3.23 1.908-4.496 5.228-3.79 9.934.51 3.4.397 3.8-1.07 3.8-.9 0-2.225-.894-2.941-1.988-2.824-4.31-11.407-3.368-14.034 1.54-1.04 1.941-1.012 2.694.214 6.002 1.243 3.355 1.257 3.839.122 4.274-.722.277-2.186-.361-3.362-1.466-2.728-2.563-7.31-2.506-10.111.125-1.536 1.443-2.036 2.795-2.036 5.505 0 1.977.38 3.828.842 4.114 1.39.859.952 2.105-.739 2.105-.87 0-2.053-.568-2.63-1.263-1.52-1.834-6.41-1.59-8.42.421-2.298 2.298-2.202 7.135.21 10.679 1.042 1.53 2.183 2.786 2.535 2.789.352.003 2.326-1.58 4.385-3.519z"/>
  <path fill="#040404" d="M241.11 382.064c-.494-.312-2.328.161-4.076 1.053-1.747.891-4.062 1.62-5.143 1.62-1.082 0-5.55.729-9.928 1.619-12.515 2.544-15.638 2.668-18.114.72-1.167-.917-3.214-3.808-4.55-6.424-1.382-2.708-4.937-7.227-8.254-10.494-5.299-5.218-7.846-7.092-18.308-13.464-1.852-1.129-5.168-2.314-7.368-2.635-3.812-.555-4-.489-4 1.417 0 1.108-1.092 3.045-2.45 4.346-2.015 1.93-2.91 2.245-5.05 1.775-2.972-.653-5.132-3.255-5.132-6.183 0-1.137-1.09-3.019-2.526-4.36-1.851-1.73-2.526-3.128-2.526-5.23 0-4.426 1.678-6.097 5.873-5.85 2.231.132 4.874-.436 7.144-1.535 6.111-2.958 9.977-.168 9.527 6.877-.192 2.993.043 3.624 1.456 3.91.926.187 2.66 1.032 3.85 1.877 3.212 2.278 9.854 2.93 13.657 1.342 3.9-1.63 3.991-3.533.245-5.098-3.275-1.369-4.7-3.507-4.7-7.055 0-2.801 2.254-5.239 4.844-5.239 2.124 0 6.651 3.64 7.379 5.932.726 2.287 3.332 2.058 5.32-.468 3.007-3.824.597-12.065-5.373-18.372l-2.255-2.382-2.267 2.172c-5.164 4.947-10.526 1.613-10.669-6.635-.04-2.335-.594-5.47-1.23-6.965-1.05-2.467-.996-2.936.58-5.053 2.316-3.115 4.63-3.304 9.2-.75 2.092 1.169 4.33 1.924 4.974 1.677 1.527-.586 6.914 1.985 7.532 3.594.45 1.172-.684 3.828-3.094 7.25-1.64 2.33.046 4.046 7.87 8.016 7.296 3.702 12.229 4.545 11.876 1.88-14.09-106.485-14.315-106.518 70.745-32.843.89.77 2.478-4.245 3.319-10.82.917-7.17.288-8.548-3.898-8.548-3.457 0-7.168-2.846-7.168-5.496 0-2.375 1.657-6.294 2.661-6.294 1.58 0 4.076-3.52 4.076-5.748 0-1.458.826-3.156 2.135-4.386 2.131-2.002 2.141-2.003 5.045-.44 1.83.987 3.29 2.62 3.936 4.408.598 1.656 2.182 3.522 3.797 4.475 2.372 1.399 2.77 2.102 2.77 4.884 0 3.204-2.578 6.912-4.806 6.912-2.47 0-2.017 7.317.807 13.053 3.357 6.817 7.79 9.57 11.567 7.183 1.077-.681 1.093-1.178.114-3.566-2.163-5.277-2.125-7.145.192-9.462 2.629-2.628 4.654-2.72 7.669-.35 1.933 1.521 2.232 2.286 1.893 4.843-.22 1.67-.679 3.889-1.017 4.931-.528 1.629-.315 1.895 1.524 1.895 1.177 0 3.246-.932 4.6-2.07 2.646-2.228 6.755-10.507 7.504-15.122.405-2.499.174-2.972-1.951-3.98-2.647-1.256-5.805-6.766-5.032-8.78.268-.699 2.387-2.15 4.71-3.227 2.321-1.075 5.008-2.956 5.97-4.178 1.26-1.603 2.525-2.222 4.537-2.222 3.263 0 5.04 2.162 6.268 7.626.436 1.938 1.201 3.934 1.7 4.433 1.68 1.68 1.043 6.41-1.157 8.61-2.247 2.247-3.88 2.55-6.422 1.19-1.313-.703-1.743-.577-2.15.63-.278.831-1.395 3.813-2.481 6.627-1.086 2.815-2.166 7.362-2.4 10.106-.233 2.743-.81 6.996-1.28 9.45-1.166 6.078.287 16.258 2.975 20.845 1.12 1.91 2.035 4.334 2.035 5.387 0 2.2-8.108 10.577-12.442 12.854-4.109 2.16-4.163 3.513-.339 8.463zm-18.016.917c1.477-.423 3.745-.77 5.04-.77 2.696 0 9.024-2.981 9.024-4.251 0-1.329-5.003-10.907-5.696-10.904-2.737.01-19.537 12.794-21.409 16.293-.817 1.527-.591 1.575 4.748 1.003 3.084-.33 6.816-.947 8.293-1.37zm-13.989-3.293c4.4-4.893 14.334-12.247 25.595-18.946 9.105-5.417 39.25-20.355 46.497-23.042 2.685-.996 6.31-2.54 8.058-3.43 4.577-2.335 26.349-8.418 34.015-9.503 4.975-.705 7.064-.683 8.76.09 2.572 1.171 4.186.163 3.326-2.077-.488-1.273-1.553-1.386-9.164-.97-4.737.258-10.128 1.018-11.98 1.689-1.854.67-6.422 1.835-10.153 2.59-3.73.753-9.226 2.339-12.21 3.523-27.066 10.733-42.677 18.655-67.975 34.494-5.439 3.405-16.62 12.72-18.245 15.2-1.308 1.997-1.765 4.59-.81 4.59.277 0 2.206-1.894 4.286-4.208zm-2.71-5.212c2.06-1.938 6.198-5.254 9.197-7.368 13.709-9.665 17.236-12.092 21.526-14.812 7.852-4.979 30.944-16.412 39.048-19.334a548.492 548.492 0 0 0 14.975-5.693c9.812-3.935 31.196-9.058 37.812-9.058 1.795 0 3.5-.38 3.786-.845.288-.465-.542-2.833-1.845-5.263-2.122-3.96-2.686-4.445-5.449-4.675-3.88-.323-6.602 2.258-6.602 6.26 0 3.904-1.403 4.254-3.41.852-4.888-8.283-13.815-7.016-15.061 2.138-.583 4.282-2.064 4.977-3.733 1.75-2.487-4.81-8.942-5.87-12.586-2.065-1.8 1.877-2.263 3.172-2.263 6.315 0 4.435-1.211 5.12-3.867 2.184-2.598-2.87-6.153-4.328-9.172-3.761-4.115.772-5.75 3.141-6.17 8.945-.2 2.769-.69 5.236-1.09 5.483-.4.247-2.072-.896-3.716-2.54-3.4-3.4-6.637-3.88-10.556-1.565-3.23 1.908-4.496 5.228-3.79 9.934.51 3.4.397 3.8-1.07 3.8-.9 0-2.225-.894-2.941-1.988-2.824-4.31-11.407-3.368-14.034 1.54-1.04 1.941-1.012 2.694.214 6.002 1.243 3.355 1.257 3.839.122 4.274-.722.277-2.186-.361-3.362-1.466-2.728-2.563-7.31-2.506-10.111.125-1.536 1.443-2.036 2.795-2.036 5.505 0 1.977.38 3.828.842 4.114 1.39.859.952 2.105-.739 2.105-.87 0-2.053-.568-2.63-1.263-1.52-1.834-6.41-1.59-8.42.421-2.298 2.298-2.202 7.135.21 10.679 1.042 1.53 2.183 2.786 2.535 2.789.352.003 2.326-1.58 4.385-3.519zm-12.783-15.41c2.218-2.53 6.955-6.76 10.527-9.4 3.571-2.64 7.63-5.837 9.02-7.106 3.268-2.983 7.725-5.656 25.722-15.43 20.25-10.997 27.62-14.333 42.16-19.082 16.527-5.397 31.13-8.49 41.17-8.72l8-.183.558-4.151c.307-2.283.59-5.278.632-6.655l.073-2.503-2.418 2.648c-3.29 3.6-8.756 5.241-11.782 3.535-2.102-1.185-2.415-1.104-5.864 1.523-2.004 1.526-4.485 2.775-5.514 2.775-2.566 0-7.401-5.254-10.462-11.369l-2.529-5.053-.572 3.369c-1.294 7.62-4.769 13.885-8.883 16.013-3.066 1.585-8.426 1.61-10.552.05-1.497-1.1-1.74-.978-2.897 1.449-1.765 3.7-7.15 6.669-10.909 6.013-5.967-1.042-10.772-4.65-15.624-11.736l-2.307-3.368.735 3.368c.405 1.853.695 6.69.645 10.75-.074 5.972-.396 7.717-1.684 9.142-2.633 2.91-7.878 5.176-10.864 4.691-2.501-.406-2.73-.232-3.44 2.621-1.852 7.421-12.315 9.281-22.596 4.016-3.099-1.587-5.498-2.629-5.331-2.316 3.42 6.428 4.178 9.11 3.712 13.13-.594 5.137-4.043 8.914-8.14 8.914-1.932 0-2.513.38-2.513 1.644 0 4.666-4.3 7.969-11.253 8.647-2.332.227-2.249.35 2.526 3.735 2.716 1.924 5.316 3.53 5.78 3.568.463.038 2.656-2 4.874-4.53zm9.47.408c1.568 0 2.371-.844 3.732-3.92.953-2.155 1.59-4.062 1.414-4.238-.522-.522-9.806 7.331-9.806 8.295 0 .487.6.656 1.332.375.732-.282 2.23-.512 3.329-.512zm-46.095-1.898c.482-.58 1.002-2.38 1.155-4 .222-2.331.684-3 2.223-3.22 1.069-.15 1.784-.719 1.59-1.262-.196-.544.19-2.065.854-3.38 1.08-2.139 1.054-2.563-.246-4-1.875-2.072-3.91-2.041-5.836.088-1.22 1.348-2.413 1.65-5.815 1.473-4.24-.22-4.28-.198-4.28 2.293 0 1.913.554 2.78 2.316 3.625 1.917.919 2.316 1.654 2.316 4.264 0 1.735.454 3.609 1.01 4.165 1.313 1.313 3.603 1.29 4.713-.046zm61.91-9.77c.84-.331 2.258-2.233 3.15-4.227l1.623-3.625-3.992 2.284c-2.196 1.256-4.932 3.185-6.08 4.287l-2.085 2.002 2.928-.06c1.61-.032 3.616-.33 4.456-.66zm-29.059-5.303c.26-2.242-2.26-4.923-4.627-4.923-1.803 0-2.879 3.023-1.948 5.472.706 1.858 1.282 2.171 3.58 1.95 2.253-.218 2.782-.66 2.995-2.499zm49.847-6.069c0-.63.947-2.542 2.105-4.248 1.158-1.706 2.105-3.315 2.105-3.576 0-.758-2.51.383-9.176 4.169l-6.229 3.538 4.124.499c6.799.823 7.07.808 7.07-.382zm86.737-2.88c7.75-5.242 5.48-6.895-6.116-4.452l-4.852 1.022 2.326 3.289c1.28 1.809 2.705 3.285 3.168 3.28.463-.003 2.926-1.416 5.474-3.139zm-67.639-7.553c.286-.81 1.43-2.706 2.543-4.21 2.522-3.412 1.593-3.433-5.034-.113-7.802 3.909-8.253 4.435-4.325 5.045 5.601.87 6.28.798 6.816-.722zm-70.197-8.819c1.824-1.955 4.116-3.954 5.095-4.442 3.876-1.932 2.093-6.841-2.174-5.988-1.536.307-3.697-.165-6.104-1.334-3.095-1.504-3.947-1.626-5.037-.721-1.806 1.498-1.644 3.984.371 5.71 2 1.712 2.08 2.64.488 5.708-2.938 5.663 2.36 6.431 7.361 1.067zm89.836 1.059c0-.447 1.176-2.153 2.613-3.79 1.438-1.637 2.139-2.977 1.558-2.977-1.609 0-13.415 4.555-13.425 5.18-.01.584 5.317 2.167 7.78 2.312.81.048 1.474-.278 1.474-.725zm-52.632-4.57c0-3.004-2.26-4.726-4.421-3.365-3.304 2.08-1.663 6.507 2.244 6.053 1.781-.207 2.177-.696 2.177-2.688zm73.7-4.443 2.914-3.089-4.284.508c-5.066.6-10.65 2.736-8.751 3.348.695.224 2.4.798 3.79 1.275 1.389.477 2.727.908 2.972.957.246.05 1.757-1.3 3.36-2.999zm19.347-3.615c1.906-1.464 1.96-1.667.585-2.194-1.85-.71-9.056.195-10.134 1.273-.479.479.321 1.097 2.072 1.6 4.168 1.199 5.15 1.11 7.477-.679zm10.953-1.718c0-.463-.59-.842-1.313-.842-.722 0-1.078.38-.792.842.286.464.877.843 1.313.843.435 0 .792-.38.792-.843zm-58.202-10.188c1.172-3.362-.05-5.812-2.898-5.812-1.402 0-2.403.679-3.029 2.052-1.171 2.571-.467 4.502 2.005 5.494 2.837 1.14 2.935 1.096 3.922-1.734zm-38.219-7.496c.286-.463 1.4-.842 2.473-.842 1.074 0 2.386-.523 2.916-1.161.53-.64 2.083-1.386 3.45-1.66 1.75-.35 2.643-1.129 3.022-2.638.804-3.204-.96-4.777-5.025-4.477-2.853.21-3.468-.025-3.739-1.432-.453-2.358-2.65-4.632-4.475-4.632-1.921 0-3.06 3.919-1.688 5.815 2.07 2.861 2.019 3.634-.363 5.533-2.18 1.738-2.313 2.13-1.403 4.129 1.01 2.214 3.817 3.008 4.832 1.365zm83.79-.842c2.113-2.113 2.129-3.547.06-5.419-3.452-3.123-7.366 1.036-4.743 5.04 1.64 2.503 2.49 2.572 4.682.38zm-29.92-16.483c1.112-.729 2.71-1.253 3.55-1.166.84.087 3.13.115 5.09.062 3.065-.084 3.636-.392 4.093-2.213.659-2.623-.749-4.438-3.708-4.781-1.868-.217-2.329-.783-2.746-3.375-.506-3.14-2.047-5.728-3.411-5.728-.406 0-1.511.772-2.455 1.716-1.336 1.336-1.598 2.35-1.182 4.568.483 2.57.279 2.984-2.073 4.2-2.743 1.418-3.303 3.486-1.736 6.413 1.057 1.975 1.938 2.034 4.578.304zm59.224-.527c1.52-1.521 1.231-3.116-1.06-5.838-1.138-1.354-1.855-3.02-1.593-3.703.262-.683.239-2.189-.051-3.345-.404-1.608-1.076-2.104-2.854-2.104-1.81 0-2.537.56-3.28 2.526-.756 2.006-1.455 2.527-3.391 2.527-1.341 0-3.174.547-4.073 1.215-1.52 1.13-1.543 1.384-.338 3.58 1.059 1.93 1.777 2.314 3.916 2.097 1.441-.145 2.87.139 3.174.632.305.493 1.244.897 2.086.897.842 0 2.003.568 2.58 1.263 1.262 1.521 3.5 1.637 4.884.253z"/>
  <path fill="#00409a" d="M113.52 37.904c-10.149-.04-18.358 2.753-28.244 9.395-7.135 4.793-10.772 8.96-14.262 16.353-2.648 5.61-2.7 5.958-2.83 18.77-.128 12.647-.224 13.315-3.119 21.474-1.643 4.632-3.38 10.884-3.861 13.895-1.164 7.283-1.12 20.509.091 27.57.882 5.14.8 6.247-.81 11.172-9.883 30.216 3.3 64.522 24.726 64.34 12.58-.107 21.455-10.246 25.36-28.977 2.167-10.394 2.131-33.458-.065-42.037-1.55-6.058-1.552-6.428-.086-12.21 1.813-7.148 2.635-8.91 4.155-8.91 1.251 0 15.506 24.847 31.4 54.735 11.976 22.52 18.782 35.944 38.428 75.79 26.276 53.293 31.82 64.388 32.683 65.43.468.562.604 1.418.305 1.902-.8 1.293 1.798 1.068 4.639-.4 2.362-1.222 3.877-4.265 3.174-6.376-.182-.545-1.64-1.414-3.24-1.931-2.636-.852-2.935-1.273-3.167-4.465-.206-2.84.076-3.703 1.455-4.442 2.19-1.172 5.764-.286 6.823 1.692.45.842.82 2.705.82 4.14 0 4.622 5.162 4.795 10.725.36 2.208-1.761 2.278-2.078 2.302-10.567.02-6.845-.33-9.573-1.607-12.521-2.532-5.843-2.72-5.981-5.994-4.42-2.668 1.272-2.972 1.265-4.48-.1-2.587-2.34-2.702-4.508-.383-7.263 1.963-2.334 2.008-2.59.69-3.907-1.619-1.62-1.16-5.795.858-7.814 1.849-1.849 5.608-.233 7.153 3.074 1.106 2.37 1.65 2.693 4.38 2.6 3.622-.124 5.725 1.298 5.725 3.87 0 2.424-2.276 5.555-4.049 5.571-1.786.016-2.704.332-2.787 1.334-.041.501.128 1.174.5 2.068.373.894.95 2.008 1.729 3.393 4.918 8.745 12.19 15.088 17.3 15.088 1.964 0 8.36-3.288 8.36-4.297 0-.34.211-1.168.469-1.84.3-.785-.602-1.85-2.528-2.986-3.646-2.152-3.983-5.122-.927-8.178 2.43-2.43 3.595-2.558 6.27-.685 1.743 1.22 1.918 1.854 1.497 5.41-.519 4.382.053 5.33 3.783 6.265 3.83.961 11.929-4.122 8.428-5.289-.546-.182-.992-.719-.992-1.195 0-.476-3.126-5.265-6.947-10.64-8.59-12.087-15.174-21.757-50.256-73.829-15.29-22.694-31.573-46.757-36.186-53.472-11.097-16.157-39.228-59.01-39.857-60.713-.273-.739.167-2.824.978-4.635 2.288-5.11 3.672-11.923 3.672-18.063 0-4.556-.518-6.725-2.771-11.615-5.783-12.546-18.517-20.463-34.95-21.726a61.625 61.625 0 0 0-4.48-.188zm-1.734 25.219c8.4.28 16.637 7.065 17.402 16.285.48 5.795-1.392 9.787-6.377 13.594-3.9 2.978-6.718 3.69-7.299 1.842-.182-.58-.783-2.57-1.336-4.422-1.36-4.562-6.042-9.26-12.386-12.43-3.692-1.845-5.262-3.11-5.262-4.234 0-2.489 3.118-6.277 7.076-8.596 2.565-1.503 5.382-2.133 8.182-2.04zm-10.873 22.983c.68-.032 2.191.25 3.81 2.01 2.409 2.62 2.521 5.1 2.587 8.441.2 10.117-.231 20.671-1.219 26.35-1.91 10.983-6.447 11.81-4.131-8.962.561-5.036-.522-16.428-2.362-20.668-1.47-3.388-1.935-5.703-1.214-6.415.18-.178 2.302-.745 2.529-.756zm-27.195 18.946c.97 0 2.206 2.366 2.108 5.957-.791 29.172.19 33.022 1.625 36.064 1.819 3.853 4.857 6.829 7.555 6.829 2.676 0 3.81 4.578 1.74 6.091-4.263 3.118-14.377-2.532-16.061-9.18-.394-1.556-1.392-4.363-2.166-6.447-2.936-7.912 1.454-39.314 5.199-39.314zm10.517 12.23c.558-.214 3.172.566 5.81 1.732 5.02 2.22 5.824 3.706 3.926 7.252-.48.896-1.332 1.562-1.894 1.48-.563-.08-2.605-.288-4.537-.464-1.933-.175-3.958-.856-4.5-1.51-1.205-1.45-.294-7.919 1.195-8.49zm3.027 17.053c3.45.285 9.706 3.86 12.36 7.797 3.87 5.744 5.288 12.002 5.271 27.91-.016 15.37-1.746 24.24-5.117 32.103-2.18 5.088-6.918 9.79-10.517 10.79-4.158 1.154-6.126 1.17-10.086-.63-9.19-4.175-15.287-21.63-14.247-38.614.635-10.379 2.298-12.01 5.313-9.803 1.22.893 1.999 3.522 2.253 14.24.456 19.183 2.357 24.035 10.447 25.325 11.323 1.806 14.547-5.962 14.442-29.786-.073-16.637-1.124-19.276-8.894-27.8-6.736-7.389-7.165-12.023-1.225-11.532zm.858 33.267c2.812.048 2.694 2.155 2.25 10.631-.285 5.43-1.022 11.578-1.635 13.662-.905 3.073-1.52 3.836-3.26 4.041-1.18.14-2.606-.303-3.17-.982-1.544-1.86-2.726-11.065-2.447-19.068l.248-7.116 4.127-.69c1.686-.28 2.95-.494 3.887-.478zm422.168 74.239c-1.936-.079-4.88 1.489-10.225 5.047-9.044 6.02-21.268 12.845-37.22 20.787-12.631 6.287-16 8.666-16 11.29 0 3.738 2.26 4.628 13.507 5.329 13.356.832 13.562 1.289 4.549 10.043-20.21 19.627-76.848 55.73-107.32 68.408-12.122 5.043-13.397 5.131-17.73 1.226-5.127-4.618-18.48-21.173-18.48-22.91 0-.803.434-1.896.964-2.425.723-.724.545-.853-.713-.524-1.273.333-2.397-.533-4.66-3.59-3.406-4.597-3.28-6.179.5-6.271 1.455-.036 4.162-.596 6.015-1.246l3.367-1.184-4.63.408c-5.787.51-24.624 6.096-32.286 9.575-3.167 1.437-7.785 3.203-10.263 3.923-2.479.72-5.817 2.199-7.418 3.286-1.602 1.086-3.805 2.243-4.895 2.568-1.09.325-8.423 3.895-16.297 7.935-15.887 8.152-24.117 13.057-20.525 12.23 2.055-.472 2.423-.073 5.262 5.67 1.678 3.399 3.052 6.64 3.052 7.206 0 .565-1.551 1.819-3.449 2.787-1.897.968-3.26 1.95-3.03 2.182.117.115.606.024 1.302-.215.695-.24 1.597-.628 2.537-1.108 1.879-.958 3.947-1.742 4.597-1.742.65 0 2.16 2.179 3.354 4.842 3.919 8.738 11.239 28.284 13.246 35.37l1.969 6.946-2.473 2.6c-5.192 5.457-22.742 15.72-53.842 31.488-23.676 12.004-82.364 36.649-87.275 36.649-2.564 0-2.77-2.171-.904-9.545 1.59-6.285 1.625-7.003.408-8.35-.733-.81-1.962-1.474-2.733-1.474-1.342 0-44.256 39.095-47.476 43.252-1.212 1.563-1.361 2.382-.67 3.673.751 1.404 2.118 1.75 8.79 2.22 9.34.656 28.5 3.764 44.386 7.198 13.488 2.917 14.636 3.006 16.361 1.282 2.174-2.175 1.558-3.502-3.283-7.079-5.326-3.934-6.85-6.126-5.211-7.486.601-.499 8.267-1.696 17.035-2.658 14.668-1.61 48.455-5.8 81.625-10.121 47.21-6.15 88.368-13.693 102.143-18.719 7.312-2.668 7.373-2.675 23.751-2.648 18.303.029 26.172 1.067 32.34 4.26 3.363 1.74 4.498 1.968 6.106 1.236 2.37-1.08 2.498-3.099.726-11.463-2.469-11.657-1.236-32.766 2.688-46.049.367-1.243 3.933-5.79 7.926-10.105 21.092-22.795 49.854-60.6 79.006-103.846 5.62-8.337 10.525-15.265 10.902-15.397 1.305-.455 2.425 1.996 7.613 16.66 2.868 8.106 5.941 15.478 6.83 16.381 2.268 2.305 5.9.988 6.865-2.486.387-1.39.339-9.916-.107-18.947-1.678-33.99-1.798-40.292-.973-51.367.505-6.767 1.512-13.415 2.489-16.422 1.364-4.2 1.461-5.337.572-6.737-.735-1.157-1.534-1.796-2.695-1.843z"/>
  <path fill="#070707" d="M117.579 535.396c-15.885-3.435-35.045-6.542-44.384-7.199-6.673-.47-8.041-.814-8.792-2.218-.691-1.291-.542-2.111.67-3.675 3.22-4.157 46.134-43.25 47.476-43.25.77 0 2 .663 2.733 1.473 1.217 1.347 1.182 2.066-.408 8.35-1.866 7.374-1.66 9.545.904 9.545 4.91 0 63.6-24.644 87.275-36.648 31.1-15.768 48.65-26.032 53.842-31.49l2.473-2.598-1.969-6.948c-2.007-7.085-9.327-26.63-13.246-35.369-1.195-2.663-2.704-4.842-3.354-4.842-.65 0-2.719.784-4.598 1.743-1.879.959-3.606 1.554-3.837 1.322-.232-.232 1.131-1.213 3.029-2.181 1.897-.968 3.45-2.223 3.45-2.788 0-.566-1.374-3.808-3.053-7.206-2.854-5.776-3.196-6.142-5.261-5.623-2.917.732-2.436.335 4.515-3.727 6.334-3.702 7.351-4.053 6.681-2.306-.238.62 1.1 4.201 2.974 7.956 1.874 3.755 3.407 7.328 3.407 7.94 0 .61.925 2.472 2.055 4.135 2.825 4.158 12.72 28.137 15.275 37.022 1.153 4.006 2.131 9.064 2.175 11.241.068 3.404-.32 4.374-2.766 6.929-5.204 5.434-13.255 10.483-24.53 15.385-10.096 4.389-21.657 9.635-40.591 18.42-3.684 1.708-13.12 6.233-20.97 10.054-7.85 3.82-14.772 6.947-15.382 6.947-.61 0-1.933 1.113-2.94 2.474-1.005 1.36-3.006 2.921-4.446 3.468-1.44.547-4.322 1.756-6.406 2.686-7.78 3.474-31.432 12.478-34.716 13.216-1.982.445-4.222.455-5.358.023-2.141-.814-4.558-4.796-4.558-7.51 0-1.033-.55-1.725-1.372-1.725-1.47 0-4.067 2.174-15.81 13.243-6.322 5.958-7.314 7.24-6.317 8.164 1.092 1.012 26.433 5.548 30.966 5.542 1.682-.002 1.9-.297 1.395-1.897-2.536-8.032-1.332-9.46 8.64-10.246 28-2.21 103.388-12.037 142.919-18.63 36.325-6.059 52.363-9.548 62.45-13.586l5.457-2.185 19.1.557c10.504.307 20.842.77 22.974 1.03l3.876.473-.038-13.759c-.04-13.949.605-19.211 3.843-31.417 1.731-6.527 2-6.943 9.848-15.212 14.285-15.052 35.028-41.35 57.762-73.232 11.41-15.999 31.066-44.942 35.64-52.476 2.469-4.067 2.958-4.449 5.402-4.21 2.704.264 3.19.84 5.867 6.937.595 1.355 1.556 2.618 2.135 2.807.82.267 1.052-3.65 1.052-17.728 0-9.938.236-19.248.524-20.689.388-1.939.183-2.749-.79-3.123-1.845-.707-28.5 13.914-28.185 15.46.133.65 1.687 1.677 3.455 2.283 6.344 2.176 7.86 5.57 5.261 11.789-1.707 4.085-14.168 16.73-24.32 24.681-18.588 14.556-51.578 35.47-76.464 48.473-21.435 11.2-33.382 15.511-38.735 13.976-4.974-1.427-26.455-24.928-29.74-32.537-.834-1.932-3.273-5.4-5.419-7.709l-3.902-4.197 8-2.249c4.4-1.237 9.894-2.403 12.21-2.591l4.21-.343-3.368 1.183c-1.852.65-4.56 1.212-6.015 1.248-3.78.092-3.905 1.674-.5 6.272 2.264 3.056 3.387 3.921 4.66 3.588 1.259-.329 1.437-.198.713.525-.53.53-.963 1.621-.963 2.425 0 1.737 13.354 18.292 18.48 22.91 4.334 3.905 5.609 3.817 17.73-1.226 30.473-12.678 87.111-48.78 107.32-68.407 9.014-8.754 8.807-9.211-4.549-10.043-11.247-.701-13.507-1.593-13.507-5.33 0-2.625 3.37-5.002 16-11.29 15.952-7.941 28.176-14.768 37.22-20.788 8.552-5.693 10.96-6.29 12.92-3.203.89 1.4.793 2.537-.572 6.737-.977 3.007-1.984 9.655-2.488 16.42-.825 11.076-.706 17.38.972 51.37.446 9.03.494 17.557.108 18.947-.965 3.474-4.598 4.789-6.866 2.484-.889-.903-3.962-8.274-6.83-16.38-5.187-14.663-6.307-17.114-7.612-16.659-.377.132-5.283 7.06-10.903 15.397-29.152 43.246-57.914 81.05-79.005 103.845-3.993 4.316-7.56 8.863-7.928 10.106-3.924 13.282-5.155 34.391-2.686 46.048 1.772 8.365 1.644 10.383-.727 11.463-1.608.733-2.743.503-6.105-1.237-6.168-3.193-14.038-4.23-32.34-4.259-16.379-.026-16.44-.02-23.752 2.65-13.775 5.025-54.933 12.568-102.143 18.718-33.17 4.32-66.958 8.51-81.626 10.12-8.768.962-16.433 2.158-17.035 2.657-1.639 1.36-.113 3.552 5.213 7.487 4.84 3.576 5.457 4.904 3.282 7.078-1.724 1.725-2.872 1.635-16.36-1.281zm77.784-43.276c-.264-.688-.536-2.432-.605-3.877l-.126-2.628 20.632-5.445c23.89-6.306 48.271-14.188 62.82-20.308 12.503-5.26 54.262-26.719 65.18-33.494 36.068-22.383 66.669-50.687 100.549-92.999 3.152-3.937 6.052-7.278 6.444-7.424 1.11-.416 5.849 3.392 5.849 4.701 0 2.464-25.339 32.168-42.1 49.354-50.603 51.884-106.49 81.954-204.36 109.955-13.48 3.856-13.625 3.878-14.283 2.165zm109.447-89.726c-5.019-9.278-11.935-21.688-15.37-27.579-3.435-5.89-8.308-14.688-10.83-19.551-2.521-4.863-5.087-9.645-5.701-10.626-1.01-1.613-.902-1.884 1.145-2.837 1.244-.578 3.262-1.348 4.484-1.709 2.067-.61 2.257-.442 2.722 2.416.275 1.69 1.863 4.966 3.528 7.282s3.711 5.537 4.548 7.158c3.91 7.574 7.954 14.853 8.89 16 .568.695 6.069 10.515 12.225 21.822l11.193 20.56-2.453 1.962c-1.35 1.08-3.084 1.965-3.855 1.968-.959.003-4.286-5.328-10.526-16.866zm24.997-69.466c.586-.706 1.239-1.11 1.45-.898.585.584-.602 2.181-1.62 2.181-.558 0-.494-.483.17-1.283zm3.351-4.611c0-1.164.562-1.685 1.815-1.685 1.762 0 1.77.05.29 1.685-.838.926-1.654 1.684-1.814 1.684-.16 0-.29-.758-.29-1.684zm-115.766-1.722c.299-.483.16-1.339-.306-1.902-.864-1.04-6.406-12.135-32.682-65.43-19.646-39.844-26.452-53.268-38.428-75.789-15.895-29.888-30.149-54.736-31.4-54.736-1.52 0-2.343 1.763-4.156 8.91-1.467 5.783-1.464 6.153.087 12.21 2.196 8.58 2.23 31.643.064 42.037-3.905 18.73-12.779 28.871-25.36 28.978-21.425.182-34.61-34.124-24.726-64.34 1.611-4.924 1.691-6.032.81-11.173-1.211-7.06-1.255-20.287-.092-27.57.481-3.01 2.219-9.263 3.862-13.895 2.895-8.159 2.992-8.826 3.12-21.473.129-12.812.181-13.158 2.83-18.769 3.49-7.392 7.125-11.562 14.26-16.355 11.3-7.59 20.408-10.153 32.725-9.206 16.432 1.263 29.168 9.18 34.95 21.726 2.254 4.89 2.772 7.059 2.772 11.616 0 6.14-1.385 12.951-3.673 18.061-.811 1.811-1.251 3.898-.979 4.636.629 1.704 28.761 44.555 39.858 60.712 4.613 6.716 20.897 30.779 36.187 53.474 35.082 52.07 41.664 61.74 50.254 73.827 3.821 5.376 6.947 10.164 6.947 10.64 0 .476.447 1.015.994 1.197 3.5 1.167-4.6 6.25-8.429 5.289-3.736-.938-4.302-1.881-3.78-6.296.444-3.74.301-4.176-1.828-5.57-2.079-1.363-2.53-1.39-4.527-.272-1.22.683-2.671 2.555-3.224 4.16l-1.005 2.92-.048-3c-.038-2.389.47-3.382 2.49-4.876 1.996-1.475 2.37-2.192 1.748-3.354-.611-1.142-23.6-35.134-34.18-50.54-7.01-10.206-85.867-128.829-88.394-132.967l-3.213-5.262 2.744-6.945c4.628-11.712 4.337-20.507-.933-28.166-5.095-7.406-16.182-12.13-28.62-12.194-9.333-.049-14.872 1.592-22.765 6.745C80.87 60.492 78.063 65.152 76.26 78.696l-.936 7.031 5.339 10.653c4.058 8.1 6.04 11.135 8.27 12.663 1.613 1.106 3.223 2.01 3.579 2.01.355 0 .646-2.563.646-5.697 0-4.19-.45-6.473-1.703-8.632-4.243-7.306-5.335-10.545-5.39-15.986-.05-4.93.303-6.12 3.552-11.953 5.762-10.35 11.522-14.108 21.647-14.126 10.235-.018 19.254 5.784 24.01 15.445 4.426 8.99 3.395 18.134-2.881 25.56-2.485 2.94-8.533 7.307-11.361 8.205-3.127.992-4.295 2.908-4.295 7.045 0 3.085.619 4.872 2.822 8.15 10.804 16.079 38.27 68.232 76.847 145.916l21.447 43.19 2.843-.533c1.563-.293 3.551-.308 4.418-.033 1.908.606 4.466 4.72 4.466 7.185 0 .985.571 2.01 1.27 2.278 1.908.733 7.136-2.076 7.976-4.285 1.226-3.225 1.222-12.41-.007-16.886-1.65-6.011-2.15-6.472-6.335-5.845-3.429.514-3.662.406-5.765-2.69-2.634-3.876-2.679-4.514-.507-7.274.926-1.178 1.684-2.772 1.684-3.542 0-1.278.117-1.284 1.331-.07s1.146 1.552-.77 3.827c-2.318 2.756-2.203 4.924.383 7.265 1.508 1.365 1.814 1.372 4.482.1 3.274-1.562 3.46-1.424 5.993 4.419 1.278 2.948 1.628 5.675 1.608 12.521-.025 8.488-.094 8.807-2.302 10.567-5.563 4.436-10.725 4.262-10.725-.36 0-1.434-.37-3.298-.82-4.14-1.059-1.978-4.632-2.864-6.822-1.692-1.38.738-1.663 1.602-1.457 4.441.232 3.192.531 3.614 3.167 4.466 1.6.517 3.058 1.386 3.24 1.93.703 2.112-.811 5.155-3.173 6.377-2.841 1.469-5.438 1.693-4.639.4zM91.184 211.566c8.427-3.998 13.022-18.572 12.946-41.06-.065-19.362-2.613-27.717-10.015-32.847-4.142-2.87-9.94-3.893-10.71-1.889-.583 1.521 3.637 7.684 8.404 12.272 4.984 4.797 5.981 9.162 5.981 26.17 0 17.326-1.192 22.834-5.98 27.622-2.758 2.757-3.131 2.88-7.654 2.504-3.995-.331-5.127-.81-7.087-3.005-3.49-3.906-4.3-7.706-4.739-22.228-.347-11.499-.601-13.395-1.964-14.628-3.663-3.315-4.997.177-4.997 13.073 0 24.131 12.35 40.406 25.815 34.016zm-2.448-19.67c.613-2.085 1.348-8.233 1.633-13.662.593-11.302.607-11.278-6.135-10.152l-4.128.69-.248 7.115c-.278 8.003.903 17.208 2.447 19.069.564.68 1.99 1.121 3.17.982 1.74-.205 2.356-.97 3.26-4.043zm-2.442-32.746c2.109-1.336.63-3.635-3.24-5.039-3.28-1.189-4.11-2.013-6.172-6.134-2.8-5.597-3.062-9.585-1.922-29.134.743-12.725.733-12.842-1.02-12.842-1.839 0-2.282 1.059-4.335 10.352-3.421 15.492-.827 33.065 5.95 40.307 2.518 2.691 3.58 3.233 6.315 3.223 1.809-.007 3.8-.337 4.424-.733zm19.434-35.262c1.31-6.282 2.146-23.236 1.391-28.265-.66-4.407-3.952-8.99-6.456-8.99-2.09 0-2.1 2.47-.024 6.56 1.93 3.806 2.981 18.543 1.993 27.966-.365 3.473-.53 6.999-.366 7.834.537 2.75 2.393.013 3.462-5.105zm-11.757 2.379c1.898-3.547 1.095-5.031-3.925-7.251-2.638-1.167-5.253-1.946-5.81-1.732-1.49.571-2.4 7.04-1.196 8.49.543.654 2.568 1.333 4.5 1.508 1.932.176 3.974.385 4.536.466.563.081 1.416-.586 1.895-1.481zm28.84-33.264c4.985-3.807 6.858-7.8 6.377-13.594-1.02-12.293-15.325-20.26-25.585-14.247-3.958 2.32-7.076 6.108-7.076 8.596 0 1.124 1.572 2.388 5.263 4.233 6.344 3.17 11.026 7.869 12.387 12.43a505.425 505.425 0 0 0 1.335 4.422c.58 1.848 3.399 1.137 7.298-1.84zm132.032 210.925c-4.193-2.243-8.666-7.175-12.187-13.436-3.114-5.538-3.013-6.762.56-6.794 1.772-.016 4.048-3.148 4.048-5.571 0-2.584-2.11-3.998-5.756-3.855-2.765.109-3.263-.18-4.09-2.371-1.122-2.974-4.782-4.963-6.795-3.693-.744.469-1.788 2.146-2.32 3.726l-.967 2.873-.518-3.195c-.304-1.874-3.56-8.137-7.869-15.14-15.983-25.975-58.65-93.71-75.809-120.351-6.184-9.603-11.245-17.831-11.245-18.286 0-.94 5.839-5.101 7.143-5.09 1.035.007 4.813 5.858 39.427 61.045 39.639 63.2 46.062 73.743 46.062 75.618 0 .676.63 1.749 1.4 2.384.77.636 3.094 3.809 5.165 7.05 4.532 7.094 8.959 12.222 11.898 13.785 1.193.634 3.213 2.128 4.49 3.32 2.369 2.213 2.445 3.421.47 7.452-.752 1.537-.2 2.977 3.55 9.263 5.545 9.296 7.277 11.233 10.039 11.233 2.431 0 5.935-2.101 5.935-3.56 0-.516-.627-1.631-1.393-2.478-1.584-1.75-.488-2.076 1.64-.488 2.119 1.58.937 4.34-2.745 6.41-3.89 2.186-6.261 2.221-10.133.15z"/>
</svg>
